<?xml version="1.0" encoding="iso-8859-1"?>
<!-- Generator: Adobe Illustrator 19.0.0, SVG Export Plug-In . SVG Version: 6.00 Build 0)  -->
<svg version="1.1" id="Capa_1" xmlns="http://www.w3.org/2000/svg" xmlns:xlink="http://www.w3.org/1999/xlink" x="0px" y="0px"
	 viewBox="0 0 512 512" style="enable-background:new 0 0 512 512;" xml:space="preserve">
<path style="fill:#303C42;" d="M256,0C114.833,0,0,114.844,0,256s114.833,256,256,256s256-114.844,256-256S397.167,0,256,0z"/>
<path style="fill:#E6E6E6;" d="M256,490.667C126.604,490.667,21.333,385.396,21.333,256S126.604,21.333,256,21.333
	S490.667,126.604,490.667,256S385.396,490.667,256,490.667z"/>
<path style="fill:#303C42;" d="M202.667,362.667c-1.75,0-3.521-0.438-5.104-1.302C194.125,359.49,192,355.906,192,352V160
	c0-3.906,2.125-7.49,5.563-9.365c3.375-1.865,7.604-1.729,10.875,0.396l149.333,96c3.042,1.958,4.896,5.344,4.896,8.969
	s-1.854,7.01-4.896,8.969l-149.333,96C206.688,362.104,204.667,362.667,202.667,362.667z"/>
<polygon style="fill:#78909C;" points="213.333,179.542 213.333,332.458 332.271,256 "/>
<polygon style="opacity:0.1;enable-background:new    ;" points="213.333,256 213.333,332.458 332.271,256 "/>
<linearGradient id="SVGID_1_" gradientUnits="userSpaceOnUse" x1="-34.2434" y1="632.7424" x2="-27.5804" y2="626.0754" gradientTransform="matrix(21.3333 0 0 -21.3333 996.3334 13791.667)">
	<stop  offset="0" style="stop-color:#000000;stop-opacity:0.1"/>
	<stop  offset="1" style="stop-color:#000000;stop-opacity:0"/>
</linearGradient>
<path style="fill:url(#SVGID_1_);" d="M362.314,253.301l-0.289,0.19c0.214,0.844,0.642,1.618,0.642,2.509
	c0,3.625-1.854,7.01-4.896,8.969l-149.333,96c-1.75,1.135-3.771,1.698-5.771,1.698c-1.75,0-3.521-0.438-5.104-1.302l120.663,120.663
	c65.57-18.082,119.585-63.87,148.788-124.027L362.314,253.301z"/>
<linearGradient id="SVGID_2_" gradientUnits="userSpaceOnUse" x1="-45.5785" y1="639.5551" x2="-23.8277" y2="629.4137" gradientTransform="matrix(21.3333 0 0 -21.3333 996.3334 13791.667)">
	<stop  offset="0" style="stop-color:#FFFFFF;stop-opacity:0.2"/>
	<stop  offset="1" style="stop-color:#FFFFFF;stop-opacity:0"/>
</linearGradient>
<path style="fill:url(#SVGID_2_);" d="M256,0C114.833,0,0,114.844,0,256s114.833,256,256,256s256-114.844,256-256S397.167,0,256,0z"
	/>
<g>
</g>
<g>
</g>
<g>
</g>
<g>
</g>
<g>
</g>
<g>
</g>
<g>
</g>
<g>
</g>
<g>
</g>
<g>
</g>
<g>
</g>
<g>
</g>
<g>
</g>
<g>
</g>
<g>
</g>
</svg>
